<svg version="1.0" xmlns="http://www.w3.org/2000/svg"
 width="1400.000000pt" height="1400.000000pt" viewBox="0 0 1400.000000 1400.000000"
 preserveAspectRatio="xMidYMid meet">
<metadata>
Created by potrace 1.15, written by Peter Selinger 2001-2017
</metadata>
<g transform="translate(0.000000,1400.000000) scale(0.100000,-0.100000)"
fill="#000000" stroke="none">
<path d="M0 7000 l0 -7000 7000 0 7000 0 0 7000 0 7000 -7000 0 -7000 0 0
-7000z m3561 3585 c43 -22 108 -92 115 -125 3 -14 9 -34 13 -45 8 -19 -14
-104 -29 -115 -4 -3 -10 -15 -14 -26 -4 -12 -14 -31 -24 -42 -9 -12 -33 -40
-52 -64 -19 -23 -88 -97 -154 -163 -102 -103 -265 -277 -289 -310 -4 -5 -26
-30 -48 -55 -22 -25 -52 -62 -66 -82 -14 -21 -30 -38 -34 -38 -5 0 -9 -5 -9
-11 0 -6 -6 -16 -12 -24 -28 -29 -48 -56 -48 -64 0 -5 -6 -16 -13 -23 -30 -32
-138 -196 -169 -258 -7 -14 -18 -31 -25 -38 -7 -7 -13 -19 -13 -27 0 -7 -3
-15 -7 -17 -8 -3 -118 -220 -151 -298 -11 -25 -26 -61 -35 -80 -17 -38 -75
-203 -84 -235 -2 -11 -9 -29 -14 -40 -5 -11 -16 -45 -25 -75 -8 -30 -22 -80
-31 -110 -8 -30 -19 -77 -25 -105 -5 -27 -16 -75 -24 -105 -8 -30 -18 -86 -23
-125 -5 -38 -14 -99 -20 -135 -20 -123 -41 -425 -41 -595 0 -170 21 -487 41
-620 6 -38 17 -113 24 -165 7 -52 19 -122 25 -155 17 -86 89 -372 102 -405 4
-8 19 -55 34 -105 15 -49 31 -94 35 -100 5 -5 9 -16 9 -25 1 -8 9 -33 20 -55
11 -22 19 -46 20 -53 0 -8 6 -26 14 -40 8 -15 47 -94 87 -177 71 -149 181
-348 206 -373 7 -7 13 -18 13 -23 0 -5 5 -15 10 -22 6 -7 48 -64 92 -127 87
-122 86 -121 121 -161 12 -14 38 -45 57 -69 82 -101 120 -143 262 -285 157
-156 254 -271 264 -311 3 -13 10 -24 15 -24 4 0 11 -17 15 -37 4 -21 10 -45
15 -54 7 -15 -16 -118 -30 -129 -3 -3 -12 -17 -20 -32 -8 -15 -27 -33 -43 -40
-15 -7 -28 -16 -28 -20 0 -3 -14 -10 -32 -13 -18 -4 -40 -12 -49 -18 -24 -15
-136 16 -219 61 -97 52 -212 146 -325 265 -124 131 -141 150 -195 220 -25 32
-61 77 -80 102 -72 90 -207 273 -255 345 -27 41 -52 77 -55 80 -3 3 -11 16
-18 30 -7 14 -21 39 -32 55 -11 17 -25 41 -30 55 -6 13 -14 27 -18 30 -4 3
-20 32 -37 65 -16 33 -33 62 -36 65 -12 12 -129 263 -129 279 0 6 -4 11 -8 11
-4 0 -14 21 -21 48 -8 26 -18 54 -21 62 -31 65 -49 110 -55 138 -4 17 -11 32
-16 32 -5 0 -9 7 -9 16 0 19 -46 170 -60 195 -5 9 -11 37 -15 63 -4 25 -10 46
-14 46 -4 0 -13 35 -20 78 -8 42 -17 82 -20 87 -7 12 -24 97 -50 245 -9 58
-20 112 -23 120 -3 8 -11 58 -17 110 -6 52 -16 138 -23 190 -16 127 -16 976 0
1085 6 44 16 121 23 170 6 50 15 99 19 110 5 11 14 58 21 105 7 47 16 90 21
96 4 6 11 33 14 60 4 27 10 54 14 59 4 6 13 39 20 75 7 36 16 70 20 75 4 6 11
26 15 45 4 19 11 40 15 45 4 6 13 33 20 60 8 28 20 61 27 75 7 14 13 32 13 40
0 8 7 24 15 34 8 11 15 27 15 35 0 8 8 33 19 55 10 23 25 57 34 76 8 19 24 56
36 82 12 26 21 52 21 57 0 6 5 11 10 11 6 0 10 5 10 11 0 14 53 123 63 127 4
2 7 8 7 14 0 9 56 107 143 253 44 75 124 191 134 198 7 4 13 15 13 23 0 8 9
22 20 31 11 10 20 21 20 26 0 5 6 15 13 22 6 8 20 25 29 37 53 69 103 134 108
138 3 3 35 41 70 85 36 43 85 102 110 129 59 66 261 266 291 288 13 10 38 29
54 43 17 14 36 25 43 25 6 0 12 4 12 8 0 11 103 62 124 62 9 0 16 4 16 9 0 25
150 22 201 -4z m6659 0 c53 -18 134 -57 138 -67 2 -5 9 -8 15 -8 29 0 282
-236 387 -360 25 -29 54 -63 66 -76 11 -13 29 -35 40 -50 10 -14 25 -33 33
-41 16 -17 88 -109 111 -143 8 -12 24 -32 35 -45 11 -13 36 -46 55 -75 19 -28
41 -58 48 -65 6 -7 12 -18 12 -24 0 -5 6 -16 13 -23 16 -16 74 -107 112 -173
15 -27 31 -52 34 -55 3 -3 14 -21 23 -40 9 -19 26 -51 37 -70 11 -19 32 -62
48 -95 15 -33 31 -62 34 -65 3 -3 12 -22 20 -42 7 -21 17 -38 21 -38 4 0 8 -7
8 -16 0 -9 6 -28 14 -42 8 -15 27 -56 42 -92 14 -36 30 -74 34 -85 5 -11 14
-38 21 -60 7 -22 17 -44 21 -49 4 -6 8 -16 8 -24 0 -8 6 -28 14 -45 7 -18 19
-52 26 -77 6 -25 16 -52 20 -61 5 -9 12 -34 16 -55 3 -22 10 -43 14 -49 4 -5
13 -39 20 -75 7 -36 16 -69 19 -75 7 -11 21 -77 51 -230 11 -55 24 -120 29
-145 6 -25 10 -68 11 -97 0 -28 4 -54 9 -57 4 -3 11 -43 15 -88 3 -46 12 -155
18 -243 16 -203 16 -657 0 -840 -7 -77 -15 -173 -18 -213 -4 -40 -11 -75 -15
-78 -5 -3 -9 -26 -9 -52 0 -26 -5 -63 -10 -82 -6 -19 -17 -71 -25 -115 -15
-82 -19 -96 -55 -222 -41 -146 -63 -218 -70 -228 -3 -5 -12 -30 -19 -55 -11
-43 -28 -88 -57 -155 -7 -16 -16 -42 -19 -57 -4 -16 -11 -28 -16 -28 -5 0 -9
-8 -9 -18 0 -10 -6 -26 -14 -37 -7 -11 -17 -31 -21 -45 -18 -62 -219 -440
-237 -448 -4 -2 -8 -8 -8 -13 0 -9 -49 -89 -61 -99 -3 -3 -12 -17 -20 -32 -14
-28 -106 -164 -124 -184 -5 -7 -19 -24 -30 -40 -11 -15 -54 -71 -95 -125 -69
-89 -96 -121 -234 -278 -49 -56 -181 -188 -227 -227 -233 -196 -401 -244 -521
-146 -120 98 -125 198 -15 333 20 26 37 49 37 53 0 7 33 43 218 232 175 179
233 242 277 299 16 22 36 47 45 56 21 24 29 35 80 104 24 33 48 65 52 70 27
33 98 146 98 155 0 5 3 10 8 10 4 0 20 24 36 53 16 28 32 54 35 57 7 6 26 40
68 120 15 30 31 57 36 58 4 2 7 9 7 15 0 7 11 34 24 62 24 49 47 101 80 180 9
22 24 52 32 67 7 14 14 32 14 40 0 7 6 25 14 40 8 15 17 41 21 58 4 17 13 43
21 58 8 15 14 36 14 47 0 11 6 32 14 47 8 14 17 46 21 70 4 24 13 63 20 88 8
25 23 90 35 145 11 55 25 120 30 145 65 302 77 920 26 1360 -8 74 -20 151 -25
170 -6 19 -13 60 -16 90 -4 30 -12 80 -20 110 -8 30 -19 78 -25 105 -11 49
-27 115 -51 205 -6 25 -17 61 -25 80 -7 19 -16 51 -20 70 -3 19 -10 37 -13 40
-4 3 -17 37 -30 75 -12 39 -29 86 -38 105 -9 19 -24 55 -35 80 -35 82 -45 104
-89 195 -44 91 -147 276 -158 285 -4 3 -12 16 -19 30 -13 28 -23 43 -71 115
-19 27 -46 66 -59 85 -13 19 -34 47 -48 62 -13 15 -24 31 -24 36 0 4 -12 21
-27 39 -55 61 -83 95 -83 100 0 3 -25 31 -55 62 -31 32 -63 67 -73 79 -9 13
-87 94 -172 180 -172 176 -185 191 -195 221 -3 12 -10 21 -14 21 -4 0 -18 24
-31 53 -34 73 -33 157 2 212 34 52 78 92 112 101 14 3 29 10 32 15 8 14 94 10
144 -6z m-4130 -385 c8 -4 38 -11 65 -15 28 -4 55 -10 60 -15 6 -4 35 -13 65
-20 30 -7 64 -19 75 -26 11 -8 27 -14 37 -14 10 0 18 -4 18 -9 0 -4 20 -14 45
-21 25 -7 45 -16 45 -21 0 -5 11 -11 25 -15 14 -3 25 -9 25 -13 0 -3 15 -13
33 -21 17 -7 37 -17 42 -22 6 -4 46 -36 90 -70 113 -87 243 -222 285 -296 8
-15 20 -32 25 -39 6 -7 15 -18 20 -25 9 -12 73 -141 111 -223 7 -16 16 -43 20
-59 4 -16 13 -41 20 -55 8 -14 14 -34 14 -45 0 -10 7 -46 16 -80 9 -33 20 -83
25 -111 11 -62 43 -232 94 -499 8 -43 19 -84 24 -90 4 -6 11 -31 15 -55 4 -24
13 -53 21 -64 8 -12 15 -29 15 -38 0 -31 71 -110 117 -130 54 -23 60 -23 129
-3 75 21 126 72 149 146 11 36 15 69 11 90 -4 18 -11 53 -15 78 -9 45 -51 171
-61 180 -3 3 -25 46 -50 95 -25 50 -49 93 -53 96 -5 3 -7 26 -5 50 l3 44 51 3
c35 2 56 -2 66 -11 8 -8 27 -21 43 -30 31 -16 42 -25 154 -125 72 -63 177
-169 231 -232 19 -23 40 -46 45 -53 27 -31 102 -127 115 -147 8 -12 20 -28 25
-34 6 -6 16 -22 23 -36 7 -14 24 -43 37 -65 29 -49 55 -101 90 -180 14 -33 30
-67 35 -76 5 -9 12 -33 15 -53 4 -20 10 -36 14 -36 4 0 13 -30 20 -67 8 -38
16 -72 20 -78 21 -34 56 -311 66 -525 8 -153 -17 -468 -41 -525 -8 -19 -14
-47 -14 -63 0 -15 -4 -32 -9 -37 -4 -6 -14 -32 -20 -60 -7 -27 -17 -59 -21
-70 -5 -11 -15 -36 -23 -55 -27 -62 -77 -164 -102 -205 -14 -22 -27 -48 -31
-57 -3 -10 -10 -18 -14 -18 -4 0 -12 -12 -19 -27 -20 -45 -136 -186 -224 -275
-80 -80 -129 -123 -232 -203 -14 -11 -31 -25 -38 -30 -6 -6 -39 -28 -72 -49
-33 -21 -71 -46 -85 -56 -14 -9 -37 -21 -50 -25 -14 -4 -28 -12 -31 -17 -4 -6
-27 -12 -51 -15 -81 -9 -144 54 -119 120 5 12 58 72 118 132 59 61 122 128
138 150 16 22 36 44 42 48 7 4 13 12 13 17 0 6 8 18 18 29 31 34 52 65 52 78
0 7 4 13 9 13 5 0 16 17 25 38 9 20 20 44 25 52 19 30 51 107 51 121 0 8 4 19
9 24 10 11 27 80 42 170 12 69 5 320 -9 338 -5 7 -12 34 -16 61 -3 27 -10 54
-15 60 -5 6 -12 27 -16 46 -8 39 -82 198 -102 218 -7 7 -13 17 -13 21 0 12
-102 116 -132 134 -43 27 -68 22 -68 -12 0 -16 7 -42 15 -57 8 -16 15 -39 15
-52 0 -13 6 -35 14 -50 18 -36 29 -133 21 -184 -6 -31 -20 -54 -60 -95 -29
-29 -59 -53 -67 -53 -7 0 -26 -7 -43 -16 -21 -12 -59 -17 -126 -18 -82 -1
-102 2 -141 23 -120 61 -172 202 -150 403 5 51 15 113 22 138 14 52 9 231 -6
251 -6 8 -16 33 -23 56 -13 48 -78 164 -98 176 -7 4 -13 12 -13 17 0 17 -113
124 -183 173 -77 55 -163 81 -191 58 -28 -23 -19 -60 27 -106 51 -53 67 -72
67 -82 0 -4 8 -21 17 -38 14 -25 17 -57 18 -179 0 -111 -3 -150 -12 -154 -7
-2 -13 -12 -13 -23 0 -10 -9 -36 -20 -56 -11 -21 -20 -43 -20 -50 0 -6 -6 -18
-12 -25 -7 -7 -26 -32 -41 -55 -37 -54 -218 -225 -299 -281 -11 -8 -32 -26
-47 -41 -15 -14 -41 -38 -57 -52 -47 -42 -127 -132 -159 -179 -16 -25 -33 -47
-37 -50 -3 -3 -10 -18 -13 -33 -4 -15 -11 -27 -16 -27 -5 0 -9 -9 -9 -19 0
-11 -4 -23 -10 -26 -5 -3 -10 -19 -10 -35 0 -15 -5 -30 -12 -32 -16 -6 -23
-290 -10 -378 22 -139 52 -246 91 -327 12 -23 21 -47 21 -53 0 -5 4 -10 8 -10
4 0 13 -12 20 -27 44 -98 160 -226 260 -287 33 -20 64 -36 68 -36 5 0 21 -6
36 -14 15 -8 40 -17 55 -20 16 -4 36 -19 45 -33 15 -24 15 -29 0 -51 -8 -13
-25 -27 -36 -32 -26 -10 -149 13 -191 34 -17 9 -35 16 -42 16 -6 0 -24 7 -40
15 -15 8 -71 35 -123 60 -91 44 -129 64 -140 75 -3 3 -18 12 -35 20 -16 8 -32
17 -35 20 -3 3 -25 19 -50 35 -24 17 -52 37 -61 45 -25 24 -109 93 -130 108
-23 16 -94 91 -149 157 -23 28 -53 63 -66 79 -14 16 -30 38 -36 49 -6 12 -16
27 -22 34 -6 8 -15 19 -21 26 -5 7 -17 26 -25 42 -8 17 -17 32 -20 35 -9 9
-80 155 -80 165 -1 6 -9 28 -20 50 -11 22 -19 43 -20 47 0 4 -5 19 -12 35 -55
133 -90 454 -69 638 12 98 39 209 67 272 8 17 14 35 14 41 0 9 21 63 54 137
33 74 125 255 136 265 3 3 11 16 18 30 7 14 21 39 32 55 11 17 25 41 32 55 7
14 27 46 45 72 18 26 33 52 33 57 0 5 6 16 13 23 7 7 23 31 36 53 13 22 46 72
72 112 27 39 49 74 49 77 0 6 44 74 60 93 6 7 15 23 20 35 6 13 18 35 28 50 9
14 45 75 80 135 34 59 67 115 72 123 6 8 15 26 21 40 5 14 19 45 30 70 57 124
68 152 92 215 61 167 79 360 51 545 -5 35 -20 78 -55 157 -11 24 -19 47 -19
53 0 5 -4 10 -8 10 -4 0 -13 12 -20 28 -17 37 -34 66 -52 84 -8 9 -24 28 -35
43 -10 15 -43 50 -73 78 -71 69 -71 69 -113 95 -95 58 -84 114 31 156 20 7
191 -4 210 -14z m3419 -5598 c48 -25 121 -92 121 -110 0 -7 4 -12 9 -12 19 0
44 -126 37 -184 -16 -121 -88 -204 -214 -247 -55 -18 -128 -19 -2484 -19
-1357 0 -2437 4 -2450 9 -13 5 -41 14 -62 21 -22 7 -44 17 -50 22 -62 51 -80
73 -106 124 -25 50 -30 70 -30 137 0 42 4 77 9 77 5 0 12 13 16 29 13 59 110
147 186 170 22 6 931 9 2504 8 l2470 -2 44 -23z"/>
</g>
</svg>
